<svg xmlns="http://www.w3.org/2000/svg" fill="none" aria-label="Expo mobile apps" role="img" viewBox="0 0 800 500"><defs><linearGradient id="ex-bg" x1="0" x2="800" y1="0" y2="500" gradientUnits="userSpaceOnUse"><stop stop-color="#12131a"/><stop offset="1" stop-color="#1c1310"/></linearGradient><radialGradient id="ex-glow" cx="0" cy="0" r="1" gradientTransform="translate(410 250) rotate(90) scale(260)"><stop stop-color="#ff6a2c" stop-opacity=".3"/><stop offset="1" stop-color="#ff6a2c" stop-opacity="0"/></radialGradient><linearGradient id="ex-screen" x1="0" x2="1" y1="0" y2="1"><stop stop-color="#ff6a2c"/><stop offset="1" stop-color="#d9531e"/></linearGradient></defs><rect width="800" height="500" fill="url(#ex-bg)"/><rect width="800" height="500" fill="url(#ex-glow)"/><g stroke="#fff" stroke-opacity=".05" opacity=".5"><path d="M0 130h800M0 370h800M270 0v500M530 0v500"/></g><g opacity=".85" transform="translate(470 150) rotate(9)"><rect width="170" height="330" x="0" y="0" fill="#fff" fill-opacity=".06" stroke="#fff" stroke-opacity=".14" rx="30"/><rect width="138" height="200" x="16" y="20" fill="#4dd4a7" fill-opacity=".18" rx="16"/><rect width="102" height="12" x="34" y="250" fill="#fff" fill-opacity=".25" rx="6"/><rect width="70" height="12" x="34" y="276" fill="#fff" fill-opacity=".18" rx="6"/></g><g transform="translate(180 110) rotate(-6)"><rect width="190" height="360" x="0" y="0" fill="#0f0f14" stroke="#fff" stroke-opacity=".18" rx="34"/><rect width="50" height="9" x="70" y="16" fill="#fff" fill-opacity=".2" rx="4.5"/><rect width="154" height="120" x="18" y="40" fill="url(#ex-screen)" rx="18"/><circle cx="52" cy="100" r="20" fill="#fff" fill-opacity=".85"/><rect width="70" height="10" x="84" y="88" fill="#fff" fill-opacity=".85" rx="5"/><rect width="46" height="9" x="84" y="106" fill="#fff" fill-opacity=".55" rx="4.5"/><rect width="72" height="72" x="18" y="178" fill="#fff" fill-opacity=".08" rx="16"/><rect width="72" height="72" x="100" y="178" fill="#4dd4a7" fill-opacity=".22" rx="16"/><rect width="154" height="14" x="18" y="264" fill="#fff" fill-opacity=".2" rx="7"/><rect width="120" height="14" x="18" y="292" fill="#fff" fill-opacity=".14" rx="7"/><rect width="70" height="8" x="60" y="330" fill="#fff" fill-opacity=".3" rx="4"/></g><text x="180" y="472" fill="#fff" fill-opacity=".3" font-family="monospace" font-size="15" letter-spacing="3">iOS · ANDROID · EAS</text></svg>