<svg xmlns="http://www.w3.org/2000/svg" viewBox="0 0 800 500" fill="none" role="img" aria-label="Expo mobile apps">
  <defs>
    <linearGradient id="ex-bg" x1="0" y1="0" x2="800" y2="500" gradientUnits="userSpaceOnUse">
      <stop stop-color="#12131a"/>
      <stop offset="1" stop-color="#1c1310"/>
    </linearGradient>
    <radialGradient id="ex-glow" cx="0" cy="0" r="1" gradientTransform="translate(410 250) rotate(90) scale(260)">
      <stop stop-color="#ff6a2c" stop-opacity="0.3"/>
      <stop offset="1" stop-color="#ff6a2c" stop-opacity="0"/>
    </radialGradient>
    <linearGradient id="ex-screen" x1="0" y1="0" x2="1" y2="1">
      <stop stop-color="#ff6a2c"/>
      <stop offset="1" stop-color="#d9531e"/>
    </linearGradient>
  </defs>
  <rect width="800" height="500" fill="url(#ex-bg)"/>
  <rect width="800" height="500" fill="url(#ex-glow)"/>
  <g opacity="0.5" stroke="#ffffff" stroke-opacity="0.05">
    <path d="M0 130h800M0 370h800M270 0v500M530 0v500"/>
  </g>
  <!-- back phone -->
  <g transform="translate(470 150) rotate(9)" opacity="0.85">
    <rect x="0" y="0" width="170" height="330" rx="30" fill="#ffffff" fill-opacity="0.06" stroke="#ffffff" stroke-opacity="0.14"/>
    <rect x="16" y="20" width="138" height="200" rx="16" fill="#4dd4a7" fill-opacity="0.18"/>
    <rect x="34" y="250" width="102" height="12" rx="6" fill="#ffffff" fill-opacity="0.25"/>
    <rect x="34" y="276" width="70" height="12" rx="6" fill="#ffffff" fill-opacity="0.18"/>
  </g>
  <!-- front phone -->
  <g transform="translate(180 110) rotate(-6)">
    <rect x="0" y="0" width="190" height="360" rx="34" fill="#0f0f14" stroke="#ffffff" stroke-opacity="0.18"/>
    <rect x="70" y="16" width="50" height="9" rx="4.5" fill="#ffffff" fill-opacity="0.2"/>
    <rect x="18" y="40" width="154" height="120" rx="18" fill="url(#ex-screen)"/>
    <circle cx="52" cy="100" r="20" fill="#ffffff" fill-opacity="0.85"/>
    <rect x="84" y="88" width="70" height="10" rx="5" fill="#ffffff" fill-opacity="0.85"/>
    <rect x="84" y="106" width="46" height="9" rx="4.5" fill="#ffffff" fill-opacity="0.55"/>
    <rect x="18" y="178" width="72" height="72" rx="16" fill="#ffffff" fill-opacity="0.08"/>
    <rect x="100" y="178" width="72" height="72" rx="16" fill="#4dd4a7" fill-opacity="0.22"/>
    <rect x="18" y="264" width="154" height="14" rx="7" fill="#ffffff" fill-opacity="0.2"/>
    <rect x="18" y="292" width="120" height="14" rx="7" fill="#ffffff" fill-opacity="0.14"/>
    <rect x="60" y="330" width="70" height="8" rx="4" fill="#ffffff" fill-opacity="0.3"/>
  </g>
  <text x="180" y="472" font-family="monospace" font-size="15" letter-spacing="3" fill="#ffffff" fill-opacity="0.3">iOS · ANDROID · EAS</text>
</svg>
