<?xml version="1.0" standalone="no"?>
<svg version="1.0" xmlns="http://www.w3.org/2000/svg"
 width="500.000000pt" height="500.000000pt" viewBox="0 0 500.000000 500.000000"
 preserveAspectRatio="xMidYMid meet">

<g transform="translate(0.000000,500.000000) scale(0.100000,-0.100000)"
fill="#0a192f" stroke="none">
<path d="M2965 4813 c-115 -7 -285 -58 -271 -81 7 -12 -84 -98 -147 -138 -29
-19 -88 -51 -132 -73 -44 -22 -96 -49 -115 -60 -93 -53 -183 -80 -164 -50 11
19 155 109 239 149 90 43 197 109 177 110 -20 0 -143 -58 -177 -85 -18 -13
-83 -52 -146 -86 -63 -34 -182 -102 -265 -150 l-151 -89 -224 0 c-191 0 -248
4 -384 25 -393 63 -517 73 -550 45 -28 -23 -14 -112 33 -212 147 -315 318
-531 476 -603 84 -38 189 -75 214 -75 10 0 22 -3 26 -7 4 -5 28 -15 54 -24 40
-13 49 -21 59 -52 12 -35 37 -249 53 -452 6 -64 6 -21 3 120 -11 398 -4 444
81 502 27 18 60 36 75 39 14 4 40 17 56 29 39 29 56 33 140 37 l69 3 2 -34 c1
-20 9 -40 19 -47 9 -7 14 -18 10 -24 -14 -23 -11 -70 4 -75 21 -6 121 1 145
11 17 6 17 5 6 -17 -7 -13 -26 -39 -44 -58 -30 -33 -30 -33 -6 -26 35 10 78
33 85 45 12 19 25 10 25 -18 0 -16 3 -32 8 -36 4 -4 7 -13 7 -19 0 -14 47 -21
79 -13 13 3 44 22 69 41 l47 36 0 -40 c0 -36 -3 -40 -21 -38 -12 1 -24 -3 -26
-9 -2 -6 9 -11 26 -11 20 0 37 -8 50 -24 11 -13 20 -18 21 -11 0 20 16 14 30
-14 15 -27 63 -58 74 -47 12 12 6 33 -10 33 -8 0 -13 4 -10 9 12 18 47 -2 68
-40 12 -22 24 -39 27 -40 53 -10 88 -1 61 16 -5 3 -10 12 -10 18 0 21 100 -96
120 -141 26 -57 58 -174 66 -242 4 -30 13 -70 20 -89 8 -19 12 -36 9 -39 -3
-3 -5 0 -5 6 0 7 -5 12 -11 12 -13 0 -8 -37 15 -99 16 -42 14 -70 -3 -42 -5 7
-14 12 -21 9 -7 -2 -4 -13 10 -31 16 -20 20 -35 16 -55 -4 -15 -6 -40 -5 -57
1 -16 2 -44 1 -62 0 -19 5 -34 14 -37 16 -6 19 -36 4 -36 -5 0 -10 -10 -10
-21 0 -16 -5 -20 -20 -16 -25 7 -25 5 6 -44 14 -23 23 -47 20 -55 -3 -9 -1
-12 4 -9 6 3 10 1 10 -6 0 -7 8 -9 21 -6 31 8 52 -2 38 -19 -9 -10 -6 -23 10
-54 11 -22 18 -40 15 -40 -2 0 0 -9 6 -20 6 -11 17 -20 25 -20 18 0 19 -12 3
-28 -8 -8 -15 -9 -25 -1 -7 7 -13 8 -13 4 0 -4 -9 3 -20 16 -21 26 -26 20 -10
-11 5 -10 23 -21 40 -25 16 -4 30 -10 30 -15 0 -4 7 -11 16 -14 13 -5 14 -3 7
6 -5 7 -7 24 -4 37 6 22 8 23 23 8 22 -23 31 -21 23 3 -4 11 -2 20 4 20 10 0
26 -49 34 -105 3 -26 9 141 12 360 0 39 -3 164 -8 278 -8 187 -7 210 8 233 9
14 19 23 22 20 3 -3 12 2 20 12 13 15 14 14 10 -16 -5 -46 10 -50 30 -8 9 20
20 36 25 36 4 0 8 13 8 29 0 20 9 36 25 49 14 11 32 35 40 54 19 42 28 53 97
111 78 65 104 77 169 77 55 0 58 -2 121 -59 40 -37 77 -83 98 -123 34 -62 34
-65 34 -183 0 -132 -20 -228 -61 -305 -116 -216 -164 -285 -237 -334 -58 -40
-119 -53 -155 -34 -26 14 -49 65 -50 111 -1 15 -5 27 -11 27 -12 0 -13 -42 0
-95 20 -86 105 -110 208 -59 63 31 114 87 200 218 71 109 81 111 82 16 0 -30
6 -78 14 -106 18 -68 71 -178 105 -217 49 -55 102 -147 125 -214 27 -75 42
-95 56 -73 5 8 12 12 15 8 11 -11 -308 -641 -360 -708 -91 -120 -225 -269
-334 -371 -59 -55 -150 -148 -201 -205 -52 -57 -112 -116 -133 -131 l-38 -27
-35 19 c-48 26 -57 45 -43 97 7 24 12 66 13 93 1 28 4 55 9 62 4 6 2 24 -3 39
-21 55 0 34 34 -35 36 -71 62 -96 46 -43 -28 93 -74 201 -118 280 -29 50 -52
93 -52 95 0 2 17 4 38 5 20 1 51 8 67 16 17 8 42 20 58 27 15 7 30 23 33 36 4
13 10 23 15 23 5 0 9 6 9 14 0 15 27 30 48 27 6 -1 12 5 12 12 0 8 6 20 14 26
11 10 15 8 18 -6 3 -15 7 -13 23 12 11 17 36 49 57 73 35 42 77 137 64 149 -3
3 -1 13 6 20 23 28 9 211 -18 237 -13 13 -12 24 6 88 22 81 24 98 11 98 -6 0
-15 -27 -22 -60 -6 -33 -15 -60 -19 -60 -5 0 -14 15 -21 33 l-13 32 -4 -30
c-2 -19 2 -33 14 -42 14 -10 15 -17 5 -41 -9 -22 -9 -35 3 -62 8 -19 15 -30
16 -25 1 15 20 -18 20 -34 0 -10 -7 -8 -24 8 -32 30 -41 11 -15 -33 12 -21 19
-48 17 -67 l-3 -32 -27 43 c-16 23 -28 46 -28 51 0 5 -6 9 -14 9 -11 0 -13 -7
-6 -30 10 -34 -5 -41 -25 -13 -11 15 -15 15 -30 3 -16 -14 -17 -12 -11 18 9
41 4 40 -24 0 -18 -28 -20 -29 -14 -8 7 24 8 60 2 65 -2 1 -13 6 -25 9 -17 6
-23 3 -23 -8 0 -9 -5 -16 -11 -16 -7 0 -9 10 -5 24 7 29 -9 43 -29 26 -13 -11
-15 -7 -15 25 0 47 -24 43 -28 -5 -2 -18 -11 -40 -20 -49 -15 -15 -15 -15 -10
0 14 37 20 109 9 109 -6 0 -11 -9 -11 -20 0 -11 -4 -20 -10 -20 -5 0 -10 7
-10 15 0 8 -4 15 -10 15 -11 0 -11 -2 -15 -38 -3 -27 -15 -42 -15 -19 0 27
-15 20 -27 -14 -7 -18 -16 -28 -23 -24 -6 4 -9 9 -6 12 3 3 1 14 -5 25 -14 25
-21 17 -25 -28 -3 -39 -19 -64 -39 -64 -7 0 -15 -10 -18 -22 -5 -18 -8 -19
-21 -8 -9 7 -17 9 -18 4 0 -5 -2 -13 -3 -19 -1 -5 -10 -29 -21 -53 -17 -39
-22 -43 -46 -38 -22 4 -28 2 -28 -13 0 -24 -33 -53 -53 -46 -17 7 -32 -10 -17
-20 15 -9 2 -25 -21 -25 -11 0 -22 -7 -25 -15 -8 -20 -42 -29 -59 -15 -11 9
-17 5 -29 -25 -14 -32 -18 -35 -36 -25 -12 6 -24 18 -27 26 -4 11 -10 9 -29
-11 -26 -28 -44 -32 -44 -10 0 8 -4 15 -10 15 -5 0 -10 -9 -10 -20 0 -17 -6
-19 -38 -17 -22 1 -47 10 -56 20 -22 21 -24 21 -22 0 1 -14 -8 -19 -36 -21
l-37 -3 10 31 c16 45 5 47 -18 3 -25 -48 -60 -57 -65 -16 l-4 28 -14 -30 c-12
-28 -14 -28 -17 -8 -3 12 3 43 12 68 l15 47 -31 29 c-17 16 -36 29 -42 29 -5
0 -25 11 -44 26 -18 14 -33 20 -33 15 0 -15 83 -109 98 -110 15 -1 16 -32 0
-66 -8 -19 -8 -38 1 -79 23 -105 97 -179 210 -212 103 -30 101 -27 35 -66 -32
-19 -87 -50 -121 -68 -102 -53 -135 -89 -209 -223 -37 -67 -80 -144 -97 -172
-28 -47 -67 -194 -67 -257 l0 -28 1610 0 1610 0 0 590 c0 553 -1 591 -17 597
-46 17 -247 159 -276 194 -18 22 -71 66 -120 100 -48 33 -94 73 -101 88 -8 15
-20 68 -27 117 -14 109 -37 186 -72 241 -45 71 -84 86 -182 68 -30 -5 -44 -3
-53 7 -8 11 -12 88 -14 269 l-1 254 46 113 c26 63 57 163 71 227 16 78 34 132
57 172 31 55 33 63 34 173 2 97 -1 122 -18 160 -19 43 -20 51 -8 190 24 278
25 322 7 386 -23 78 -58 139 -163 282 -48 66 -115 157 -148 203 -168 233 -316
320 -610 358 -96 12 -341 32 -369 29 -12 -1 -43 -3 -71 -5z m716 -391 c7 -17
5 -22 -10 -22 -24 0 -67 46 -49 52 21 8 51 -7 59 -30z m-2561 -182 c0 -5 -4
-10 -10 -10 -5 0 -10 5 -10 10 0 6 5 10 10 10 6 0 10 -4 10 -10z m-10 -90 c0
-6 -7 -13 -15 -16 -8 -4 -13 -10 -10 -15 7 -11 -33 -32 -46 -24 -13 9 8 35 28
35 7 0 16 7 19 15 7 17 24 20 24 5z m56 -52 c-1 -28 -6 -35 -35 -46 -45 -16
-49 -9 -17 28 14 17 26 36 26 41 0 5 6 9 14 9 9 0 13 -11 12 -32z m929 -587
c-3 -6 -11 -11 -17 -11 -6 0 -6 6 2 15 14 17 26 13 15 -4z m210 -141 c-10 -11
-23 -20 -28 -20 -6 0 -2 9 8 20 10 11 23 20 28 20 6 0 2 -9 -8 -20z m1829
-1430 c4 -5 10 -39 13 -77 l5 -68 -22 40 c-13 22 -33 56 -46 75 -13 19 -24 38
-24 43 0 10 61 -1 74 -13z m-720 -416 c11 -28 6 -39 -9 -20 -8 11 -15 23 -15
28 0 14 18 9 24 -8z m-223 -122 c-14 -26 -41 -48 -41 -33 0 6 5 11 10 11 6 0
10 6 10 14 0 12 9 20 28 25 1 1 -2 -7 -7 -17z m-751 -332 c0 -5 -2 -10 -4 -10
-3 0 -8 5 -11 10 -3 6 -1 10 4 10 6 0 11 -4 11 -10z"/>
<path d="M2605 4695 c-22 -13 -33 -24 -25 -25 16 0 80 36 80 45 0 10 -16 4
-55 -20z"/>
<path d="M3616 3020 c-38 -12 -101 -57 -121 -86 -16 -26 -22 -86 -11 -121 4
-14 24 -28 52 -39 101 -39 163 -112 165 -197 l1 -32 9 27 c14 37 -4 97 -44
150 -24 32 -49 50 -97 70 -59 24 -65 30 -68 58 -9 84 133 180 207 141 17 -10
21 -9 21 3 0 31 -54 44 -114 26z"/>
<path d="M3797 2915 c4 -27 8 -122 8 -210 0 -150 -2 -164 -26 -222 -15 -35
-24 -63 -20 -63 17 0 63 95 71 147 22 130 4 354 -30 387 -9 8 -10 -2 -3 -39z"/>
<path d="M2040 2820 c-105 -22 -280 -100 -280 -126 0 -11 -6 -13 -19 -9 -14 4
-27 -4 -47 -30 -15 -19 -25 -37 -23 -39 31 -31 87 -66 105 -66 32 0 30 -14 -3
-30 -24 -11 -25 -14 -10 -18 20 -4 134 67 196 124 59 53 189 94 321 101 147 8
167 27 73 70 -49 22 -75 27 -163 29 -58 2 -125 -1 -150 -6z"/>
<path d="M1562 2770 c0 -14 2 -19 5 -12 2 6 2 18 0 25 -3 6 -5 1 -5 -13z"/>
<path d="M1549 2715 c-1 -11 -1 -33 0 -49 2 -16 -3 -32 -10 -36 -25 -16 3 -64
83 -140 77 -74 80 -78 73 -111 -13 -57 -45 -150 -80 -230 -33 -76 -57 -149
-49 -149 13 0 126 257 143 327 28 110 27 130 -6 150 -36 20 -117 144 -136 208
-9 29 -17 42 -18 30z"/>
<path d="M3445 2641 c-3 -20 -5 -56 -5 -81 1 -31 -7 -61 -24 -94 -14 -27 -26
-63 -26 -79 0 -24 6 -17 40 47 35 66 40 84 40 141 0 36 3 65 8 65 4 0 18 -7
30 -16 35 -24 41 -6 8 21 -49 39 -64 38 -71 -4z"/>
<path d="M2060 2612 c-42 -12 -109 -46 -114 -59 -3 -7 4 -39 15 -72 22 -66 38
-77 92 -66 37 8 230 96 235 107 2 5 10 8 18 8 8 0 14 9 14 20 0 43 -178 85
-260 62z m206 -38 c19 -8 34 -19 34 -24 0 -15 -12 -12 -40 7 -17 12 -52 19
-120 22 -77 4 -87 6 -55 12 52 9 138 1 181 -17z m-73 -24 c10 0 17 -8 17 -20
0 -14 -17 -28 -60 -50 -69 -35 -70 -35 -70 -15 0 8 -6 15 -14 15 -8 0 -17 7
-20 16 -9 23 12 54 35 54 18 0 21 -5 17 -30 -6 -39 -2 -38 17 6 12 30 19 35
37 30 13 -3 31 -6 41 -6z"/>
<path d="M3659 2514 c-7 -9 -36 -26 -64 -39 -27 -12 -64 -39 -82 -59 -21 -24
-40 -36 -57 -36 -16 0 -26 -6 -26 -15 0 -10 10 -15 34 -15 27 0 38 7 60 39 25
36 77 71 105 71 13 0 61 48 61 61 0 14 -17 10 -31 -7z"/>
<path d="M2893 2192 c7 -34 37 -86 45 -78 2 3 -3 21 -12 40 -9 19 -16 39 -16
44 0 6 -5 14 -12 18 -8 5 -9 -2 -5 -24z"/>
<path d="M2967 2109 c7 -25 33 -33 33 -10 0 10 -8 21 -19 24 -14 3 -17 0 -14
-14z"/>
<path d="M2900 2106 c0 -9 5 -16 10 -16 6 0 10 4 10 9 0 6 -4 13 -10 16 -5 3
-10 -1 -10 -9z"/>
<path d="M1965 1963 c4 -10 10 -43 12 -74 5 -54 4 -56 -36 -94 -22 -21 -39
-40 -37 -43 2 -2 22 6 44 17 42 21 62 58 62 113 0 37 -25 98 -41 98 -7 0 -8
-7 -4 -17z"/>
<path d="M2881 1954 c0 -11 3 -14 6 -6 3 7 2 16 -1 19 -3 4 -6 -2 -5 -13z"/>
<path d="M3140 1910 c0 -16 5 -30 10 -30 6 0 10 14 10 30 0 17 -4 30 -10 30
-5 0 -10 -13 -10 -30z"/>
<path d="M1720 1792 c0 -7 23 -16 124 -49 32 -10 8 15 -34 37 -39 20 -90 27
-90 12z"/>
<path d="M1670 1750 c-21 -6 -22 -8 -8 -14 24 -11 71 -3 76 12 4 13 -27 15
-68 2z"/>
<path d="M1751 1691 c-16 -22 -20 -39 -16 -70 8 -64 48 -144 96 -190 42 -41
46 -42 90 -37 88 12 325 79 355 101 17 12 16 14 -16 33 -18 12 -39 35 -46 51
-8 18 -25 35 -41 41 -15 6 -35 13 -43 17 -8 3 -17 7 -20 7 -3 1 -11 5 -19 10
-14 9 -53 15 -118 20 -18 1 -35 4 -38 8 -8 8 -45 -2 -45 -13 0 -5 -7 -9 -15
-9 -8 0 -15 5 -15 10 0 6 5 10 10 10 6 0 10 5 10 10 0 23 -19 7 -30 -25 -6
-19 -16 -33 -21 -30 -5 3 -17 1 -28 -4 -24 -13 -34 8 -25 55 8 42 2 43 -25 5z
m320 -151 c30 -5 64 -15 76 -21 18 -10 26 -9 40 2 12 10 15 10 9 1 -6 -10 -1
-11 18 -6 14 3 26 2 26 -3 0 -9 -25 -16 -145 -42 -22 -5 -77 -18 -122 -30 -79
-21 -84 -22 -119 -5 -49 23 -63 55 -36 82 30 30 153 41 253 22z"/>
<path d="M2820 1699 c0 -5 5 -7 10 -4 6 3 10 8 10 11 0 2 -4 4 -10 4 -5 0 -10
-5 -10 -11z"/>
<path d="M1805 1680 c-27 -30 -12 -34 15 -5 13 14 19 25 13 25 -5 0 -18 -9
-28 -20z"/>
<path d="M2826 1657 c3 -10 9 -15 12 -12 3 3 0 11 -7 18 -10 9 -11 8 -5 -6z"/>
<path d="M2830 1620 c0 -5 5 -10 10 -10 6 0 10 5 10 10 0 6 -4 10 -10 10 -5 0
-10 -4 -10 -10z"/>
<path d="M2790 1585 c0 -8 2 -15 4 -15 2 0 6 7 10 15 3 8 1 15 -4 15 -6 0 -10
-7 -10 -15z"/>
<path d="M2912 1560 c0 -14 2 -19 5 -12 2 6 2 18 0 25 -3 6 -5 1 -5 -13z"/>
<path d="M3311 1514 c0 -11 3 -14 6 -6 3 7 2 16 -1 19 -3 4 -6 -2 -5 -13z"/>
<path d="M2841 1434 c0 -11 3 -14 6 -6 3 7 2 16 -1 19 -3 4 -6 -2 -5 -13z"/>
<path d="M1880 1367 c0 -7 7 -22 15 -33 13 -17 14 -16 4 14 -11 33 -19 41 -19
19z"/>
<path d="M2115 1290 c-3 -5 -2 -10 4 -10 5 0 13 5 16 10 3 6 2 10 -4 10 -5 0
-13 -4 -16 -10z"/>
</g>
</svg>
