<svg xmlns="http://www.w3.org/2000/svg" xmlns:xlink="http://www.w3.org/1999/xlink" width="595" height="484" viewBox="0 0 595 484"><defs><clipPath id="a"><rect width="595" height="484" transform="translate(2898 -2715)" fill="#fff" stroke="#707070" stroke-width="1"/></clipPath><clipPath id="b"><path d="M0-666.665H666.665V0H0Z"/></clipPath><clipPath id="c"><path d="M160.309-534.508H290.381v12.84H160.309Z"/></clipPath><radialGradient id="d" cx="0.763" cy="0.739" r="0.478" gradientTransform="translate(1.059 22.244) scale(1.098 1)" gradientUnits="objectBoundingBox"><stop offset="0" stop-color="#ffc8af"/><stop offset="1" stop-color="#ffbb9c"/></radialGradient><radialGradient id="e" cx="0.844" cy="0.663" r="0.451" gradientTransform="matrix(1.232, -0.211, 0.265, 0.978, 3.348, 12.674)" xlink:href="#d"/><clipPath id="f"><path d="M0-666.665H666.665V0H0Z" fill="#272222"/></clipPath><radialGradient id="g" cx="0.737" cy="0.766" r="0.531" gradientTransform="translate(-1.528 14.111) scale(0.891 1)" xlink:href="#d"/><radialGradient id="i" cx="0.745" cy="0.755" r="0.511" gradientTransform="translate(-0.53 14.667) scale(0.958 1)" xlink:href="#d"/><radialGradient id="k" cx="2.136" cy="2.372" r="4.15" gradientTransform="matrix(0.383, 0.159, -0.061, 0.987, -6.136, 46.083)" xlink:href="#d"/><radialGradient id="m" cx="0.438" cy="1.476" r="1.813" gradientTransform="matrix(0.336, 0.159, -0.054, 0.987, -2.719, 20.131)" xlink:href="#d"/><clipPath id="o"><path d="M364.167-381.084H377.5v33.571H364.167Z"/></clipPath></defs><g transform="translate(-2898 2715)" clip-path="url(#a)"><path d="M290.381-413.1H160.308V-534.508H290.381Z" transform="translate(2862.167 -2140)" fill="#112b46"/><g transform="translate(2862.167 -2140)" clip-path="url(#b)"><g clip-path="url(#c)"><path d="M290.381-521.668H160.308v-12.84H290.381Z" fill="#1d262d"/></g><g transform="translate(262.264 -527.943)"><path d="M0,0A2.354,2.354,0,0,1-2.353,2.355,2.354,2.354,0,0,1-4.707,0,2.353,2.353,0,0,1-2.353-2.353,2.353,2.353,0,0,1,0,0" fill="#606bf1"/></g><g transform="translate(272.092 -527.943)"><path d="M0,0A2.354,2.354,0,0,1-2.355,2.355,2.354,2.354,0,0,1-4.707,0,2.353,2.353,0,0,1-2.355-2.353,2.353,2.353,0,0,1,0,0" fill="#fbd15b"/></g><g transform="translate(281.217 -527.695)"><path d="M0,0A2.353,2.353,0,0,1-2.353,2.353,2.353,2.353,0,0,1-4.707,0,2.353,2.353,0,0,1-2.353-2.353,2.353,2.353,0,0,1,0,0" fill="#ff8578"/></g><path d="M201.86-508.184H183.438v-1.548H201.86Z" fill="#ff8578"/><path d="M223.482-508.184H205.059v-1.548h18.423Z" fill="#fbd15b"/><path d="M217.7-499.843H189.134v-1.548H217.7Z" fill="#606bf1"/><path d="M236.947-499.843H222.426v-1.548h14.521Z" fill="#ff8578"/><path d="M211.591-491.5H199.045v-1.548h12.547Z" fill="#fbd15b"/><path d="M260.467-491.5H218.843v-1.548h41.624Z" fill="#fbd15b"/><path d="M256.359-483.161H208.79v-1.549h47.569Z" fill="#606bf1"/><path d="M211.537-474.82H196.9v-1.549h14.64Z" fill="#ff8578"/><path d="M232.441-474.82H217.8v-1.549h14.64Z" fill="#606bf1"/><path d="M204.735-433.094h-21.3v1.548h21.3Z" fill="#ff8578"/><path d="M233.491-433.094h-21.3v1.548h21.3Z" fill="#fbd15b"/><path d="M261.474-433.094h-21.3v1.548h21.3Z" fill="#ff8578"/><path d="M230.758-441.435H189.134v1.548h41.624Z" fill="#606bf1"/><path d="M278.87-441.435H237.247v1.548H278.87Z" fill="#ff8578"/><path d="M240.35-449.776H199.045v1.548H240.35Z" fill="#ff8578"/><path d="M255.446-449.776h-11.5v1.548h11.5Z" fill="#fbd15b"/><path d="M211.9-458.118H196.348v1.549H211.9Z" fill="#fbd15b"/><path d="M235.7-458.118H220.154v1.549H235.7Z" fill="#606bf1"/><path d="M261.253-458.118H245.7v1.549h15.549Z" fill="#ff8578"/><path d="M236.175-466.459h-21.8v1.549h21.8Z" fill="#fbd15b"/><path d="M206.146-466.459h-21.8v1.549h21.8Z" fill="#606bf1"/><path d="M173.361-509.237H171.38v-1.981h1.981Z" fill="#f9fbfc"/><path d="M173.361-499.132H171.38v-4.043h1.981Zm0,10.107H171.38v-4.043h1.981Zm0,10.105H171.38v-4.043h1.981Zm0,10.105H171.38v-4.043h1.981Zm0,10.105H171.38v-4.043h1.981Zm0,10.107H171.38v-4.041h1.981Zm0,10.105H171.38v-4.041h1.981Z" fill="#f9fbfc"/><path d="M173.361-430.451H171.38v-1.983h1.981Z" fill="#f9fbfc"/><path d="M425.474-494.279H318.367V-560.3H425.474Z" fill="#f26440"/><g transform="translate(359.965 -533.745)"><path d="M0,0-12.744,5.439,0,10.8l-1.668,3.851L-16.949,7.82V3.1L-1.668-3.772Z" fill="#f9fbfc"/></g><g transform="translate(378.745 -546.328)"><path d="M0,0-9.249,35.528-13.655,34.5-4.365-.992Z" fill="#f9fbfc"/></g><g transform="translate(400.861 -530.648)"><path d="M0,0V4.724l-15.284,6.828L-16.951,7.7l12.7-5.359L-16.951-3.1l1.667-3.772Z" fill="#f9fbfc"/></g><path d="M482.8-388.938h-61V-432.4h61Z" fill="#edbf48"/><g transform="translate(447.314 -423.016)"><path d="M0,0C-1.963,0-2.617.529-2.617,1.993V8.535c0,2.553-1.059,3.332-2.835,3.831,1.776.468,2.835,1.247,2.835,3.769v6.541c0,1.463.685,1.993,2.617,1.993v2.865c-4.953,0-6.356-1.589-6.356-4.891v-6.2c0-1.775-.465-2.46-2.085-2.46V10.715c1.62,0,2.085-.716,2.085-2.492v-6.2c0-3.332,1.4-4.889,6.356-4.889Z" fill="#f1f2f2"/></g><g transform="translate(463.636 -420.992)"><path d="M0,0V6.2C0,7.973.468,8.691,2.119,8.691v3.271C.468,11.961,0,12.647,0,14.421v6.2c0,3.3-1.4,4.891-6.353,4.891V22.645c1.932,0,2.616-.531,2.616-1.993V14.111c0-2.523,1.059-3.3,2.835-3.769-1.776-.5-2.835-1.277-2.835-3.831V-.031c0-1.464-.653-1.993-2.616-1.993V-4.889C-1.4-4.889,0-3.333,0,0" fill="#f1f2f2"/></g><path d="M187.35-505.055H118.91v-45.776h68.44Z" fill="#286f6c"/><g transform="translate(155.978 -525.09)"><path d="M0,0A7.953,7.953,0,0,1-11.233,0a7.952,7.952,0,0,1,0-11.233A7.952,7.952,0,0,1,0-11.233,7.952,7.952,0,0,1,0,0M-14.417-12.6a11.286,11.286,0,0,0,.112,14.1A11.249,11.249,0,0,0,.613,3.729L7.8,10.912a.774.774,0,0,0,1.1,0l2.019-2.019a.777.777,0,0,0,0-1.1L3.729.613a11.251,11.251,0,0,0-1.4-14.173,11.247,11.247,0,0,0-16.744.96" fill="#f9fbfc"/></g></g><g transform="translate(2862.167 -2140)"><path d="M378.467-428.183l-19.344,10.821v7.989a17.029,17.029,0,0,0-5.347.255h0l.021.107s-2.855,16.872,14.188,16.872h0c16.232,0,18.3-15.785,18.447-17.3h0a35.127,35.127,0,0,0-7.263-.107h0v-18.64Z" fill="url(#d)"/></g><g transform="translate(2862.167 -2140)"><path d="M336.607-452.046c-2.108,11.157-.081,32.981,10.455,40.513h0c2.732,1.955,17.059.259,19.387-1.779h0q5.148-4.508,10.312-9h0a13.656,13.656,0,0,0,2.121-2.143h0a12.451,12.451,0,0,0,1.7-3.849h0c2.377-7.9,4.128-16.568,2.268-24.764h0a22.114,22.114,0,0,0-5.813-10.779h0a23.506,23.506,0,0,0-16.908-7.017h0c-10.745,0-21.287,6.975-23.524,18.815" fill="url(#e)"/></g><g transform="translate(2862.167 -2140)" clip-path="url(#f)"><g transform="translate(371.121 -440.156)"><path d="M0,0C.14-1.781,1.972-3.732,3.811-2.576c1.9,1.2,1.456,4.36.667,6.1C3.86,4.891,1.791,6.387.389,5.116-.785,4.052,1.039,2.8,1.1,1.825,1.153.951-.6.324.12-.612" fill="#f7b094"/></g><g transform="translate(371.459 -431.918)"><path d="M0,0C1.92.577,5.173-.888,6-3.563a20.486,20.486,0,0,0,.735-5.728A13.732,13.732,0,0,1,7.2-2.973C6.7.921,5.339,4.632,2.281,4.681S0,0,0,0" fill="#f7b094"/></g><g transform="translate(369.103 -434.69)"><path d="M0,0A.686.686,0,0,1-.215.064C-1.4.231-1.879-1.208-2.055-2.108a39.607,39.607,0,0,1-.42-6.357,4.83,4.83,0,0,0-.195-1.7c-.668-1.529-2.447-2.523-2.991-4.1-.632-1.837,1.152-3.671.444-5.681-1.084-3.081-5.04-3.789-7.9-3.756a89.845,89.845,0,0,0-12.717,1.5c-4.473.695-10.192,1.353-14.133-1.476-4.751-3.409-6.735-12.295-3.189-17.16,1.932-2.653,5.6-4.065,8.808-4.139,3.4-.079,6.28,1.951,9.4,2.972,2.487.813,4.892-1.565,7.216-2.031,2.923-.583,4.163,2.607,6.748,2.695,2.511.084,4.973-1.877,7.415-2.323,4.868-.889,4.581,4,7.847,5.669,2.029,1.037,4.652.411,6.705,1.465,1.56.8,1.779,2.208,2.119,3.8a37.524,37.524,0,0,0,.764,4.281A9.684,9.684,0,0,0,16.037-25.6a10.478,10.478,0,0,1,1.808,3.441,21.442,21.442,0,0,1,.9,8.743C18.311-8.5,16.729-3.661,15.087.968c-1.064,3-1.46,6.131-3.1,8.973-.44.764-2.395,3-3.123,1.333a2.454,2.454,0,0,1-.1-1.149c.216-3.1,3.1-23.049-4.459-20.653A5.365,5.365,0,0,0,1.06-7.2a12.99,12.99,0,0,0-.667,5.52c.013.272.02.545.009.817A.931.931,0,0,1,0,0" fill="#242b2b"/></g><g transform="translate(359.123 -411.201)"><path d="M0,0C8.595-1.381,14.265-8.171,14.265-8.171S11.948,3.272-.516,3.876Z" fill="#f7b094"/></g><g transform="translate(373.231 -255.239)"><path d="M0,0H12.3V118.033a2.169,2.169,0,0,1-2.168,2.168H2.168A2.168,2.168,0,0,1,0,118.033Z" fill="#0a2033"/></g><g transform="translate(345.554 -253.551)"><path d="M0,0H67.656V1.847a8.419,8.419,0,0,1-8.419,8.419H8.417A8.419,8.419,0,0,1,0,1.847Z" fill="#30475e"/></g><g transform="translate(373.231 -149.032)"><path d="M0,0H12.3V27.352a2.169,2.169,0,0,1-2.168,2.168H2.168A2.168,2.168,0,0,1,0,27.352Z" fill="#0a2033"/></g><g transform="translate(315.542 -126.713)"><path d="M0,0A7.2,7.2,0,0,0,7.2,7.2,7.2,7.2,0,0,0,14.4,0,7.2,7.2,0,0,0,0,0" fill="#0a2033"/></g><g transform="translate(428.822 -126.713)"><path d="M0,0A7.2,7.2,0,0,0,7.2,7.2,7.2,7.2,0,0,0,14.4,0,7.2,7.2,0,0,0,7.2-7.2,7.2,7.2,0,0,0,0,0" fill="#0a2033"/></g><path d="M367.007-136.573h24.749V-158.2H367.007Z" fill="#30475e"/><g transform="translate(315.542 -131.484)"><path d="M0,0H127.68V-2.509a7.668,7.668,0,0,0-7.669-7.668H7.668A7.667,7.667,0,0,0,0-2.509Z" fill="#fbd15b"/></g><path d="M379.382-160.13h-4.267v-80.73h4.267Z" fill="#30475e"/><g transform="translate(427.714 -340.795)"><path d="M0,0A5.017,5.017,0,0,0-5.181,5.3c.845,14.652-2.261,50.4-15.909,62.6C-37.779,82.808-85.077,80.777-85.077,80.777s-7.811,9.585,7.812,11.716,59.648.711,70.3-9.231C3.344,73.638,9.465,48.427,4.852,4.544A5.053,5.053,0,0,0,0,0" fill="#fbd15b"/></g></g><g transform="translate(2862.167 -2140)"><path d="M321.843-152.609l5.645,12.867,17.233-7.563L339.1-160.13Z" fill="url(#g)"/></g><g transform="translate(2862.167 -2140)" clip-path="url(#b)"><g transform="translate(420.369 -302.667)"><path d="M0,0C-1.065,2.131-77.638.043-84.87.7c0,0-46.867,22.369-53.6,43.309a22.886,22.886,0,0,0-.66,8.224c1.875,29.483,35.448,100.08,35.448,100.08l5.155-2.257,17.256-7.521,2.451-1.065s-26.629-79.352-21.3-83.612,65.677-14.912,86.617-20.579C7.456,31.592,0,0,0,0" fill="#286f6c"/></g></g><g transform="translate(2862.167 -2140)"><path d="M255.931-137.562h18.812L273.4-156.83l-18.812-.043Z" fill="url(#i)"/></g><g transform="translate(2862.167 -2140)" clip-path="url(#b)"><g transform="translate(335.115 -302.624)"><path d="M0,0-.683.3S-79.14,11.312-91.921,33.317c-8.309,14.317,7.772,118.92,7.772,118.92l27.757.064s-4.151-87.136-2.767-91.993c1.556-5.539,4.219-7.541,5.284-8.115a22.853,22.853,0,0,1,.66-8.224C-46.483,23.028.383.66.383.66A1.345,1.345,0,0,1,0,0" fill="#286f6c"/></g><g transform="translate(410.896 -375.118)"><path d="M0,0-5.261.724A257.371,257.371,0,0,1-9.672,29.1L-75.22,53.981l-.9,4.751c-.276-.021-.553-.041-.808-.064.02.98.02,1.939.063,2.833.149,5.475.511,9.416,1.087,10.992a1.336,1.336,0,0,0,.384.66c1.78,1.452,24.964-1.361,50.028,7.841,21.736,7.981,33.92,16.7,34.483,15.529C15.952,82.321,3.515,26.585,0,0" fill="#edbf48"/></g><g transform="translate(404.058 -342.61)"><path d="M0,0C-1.747,8.393-6.263,25.095-15.125,27.332c-11.568,2.94-33.935,2.791-54.9,1.661-.043-.895-.043-1.853-.063-2.833.255.023.532.043.808.064l.9-4.751L-2.833-3.408A257.371,257.371,0,0,0,1.577-31.784a1.968,1.968,0,0,0,.02.235C1.725-29.355,2.621-12.4,0,0" fill="#e5ab15"/></g><g transform="translate(338.353 -396.058)"><path d="M0,0C-1.172,2.131-2.856,24.924-3.771,47.548l-13.4-12.505C-11.483,24.029,0,0,0,0" fill="#edbf48"/></g><g transform="translate(330.322 -331.98)"><path d="M0,0C-11.312,1.96-21.708,3.643-21.708,3.643l-.021.553C-34.319-5.859-53.472-34.34-53.472-34.34s5.731-6.881,7.16-8.692c.212-.276,31.443,21.219,33.04,21.027.405-.043,2-2.855,4.133-7.031L4.26-16.531C4.047-11.141,3.876-5.773,3.769-.681,2.513-.447,1.256-.233,0,0" fill="#f7b094"/></g></g><g transform="translate(2862.167 -2140)"><path d="M274.253-319.006h34.084l.277-9.331-8.969.895s-3.557-4.879-12.78-4.879h0c-9.225,0-12.612,13.315-12.612,13.315" fill="url(#k)"/></g><g transform="translate(2862.167 -2140)" clip-path="url(#b)"><g transform="translate(283.753 -375.224)"><path d="M0,0,.256.213C-1.172,2.024-6.9,8.905-6.9,8.905L-10.46,6.391a8.841,8.841,0,0,1-8.477-.107c-4.752-2.577-1.812-8.732-1.568-9.461-.92.26-6.613,4.86-7.508,4.371S-29.568-.916-23.2-7.2c6.347-6.284,15,1.789,15.252,1.789Z" fill="#f7b094"/></g><g transform="translate(265.557 -370.009)"><path d="M0,0S-1.373,2.572,1.068,3.689A24.323,24.323,0,0,0,10.3,5.417c2.04-.2,3.663-3.052,3.663-3.052l-6.18-5.8H2.843Z" fill="#f7b094"/></g><g transform="translate(265.191 -368.746)"><path d="M0,0C.365-1.263,3.875-.589,6.049-.537c1.6.037,2.48-.381,2.977-1.6S7.195-5.305,6.737-4.695s.839,1.469.877,2.279S5.325-1.339,3.532-1.339a43.564,43.564,0,0,0-4.887.468Z" fill="#e8987c"/></g></g><g transform="translate(2862.167 -2140)"><path d="M356.908-337.113c-3.9,1.023-13.316,2.789-22.817,4.452h0c-1.256.233-2.513.447-3.769.681h0c-11.312,1.96-21.708,3.643-21.708,3.643h0l-.021.553v.361l-.256,8.416v2.136a235.676,235.676,0,0,1,25.628.42h0c20,1.427,45.8,2.28,54.343-1.747h0c4.005-1.9,7.2-8.116,9.715-15.785h0l-.127.064h0L364.512-345.74c-2.429,4.537-5.028,7.947-7.6,8.628" fill="url(#m)"/></g><g transform="translate(2862.167 -2140)" clip-path="url(#b)"><g transform="translate(364.512 -345.741)"><path d="M0,0,33.383,11.824l-1.512,4.46L-1.168,2.111Z" fill="#f7b094"/></g><g transform="translate(364.512 -345.741)"><path d="M0,0C-2.428,4.537-5.028,7.947-7.6,8.628c-3.9,1.023-13.315,2.791-22.816,4.452.107-5.091.277-10.46.491-15.849.915-22.623,2.6-45.417,3.771-47.548C-24.243-53.875-19-61.608-10.736-63.376l.021.107S-13.569-46.4,3.472-46.4c16.233,0,18.3-15.785,18.448-17.3,8.352.937,21.156,5.112,22.924,21.9.361,3.324.872,7.584,1.533,12.42l-5.263.724s-2.131,23.647-7.6,40.412c-.043.02-.087.043-.128.064Z" fill="#edbf48"/></g><g clip-path="url(#o)"><g transform="translate(364.167 -348.818)"><path d="M0,0,13.329-32.268,3.511,1.3Z" fill="#e5ab15"/></g></g><g transform="translate(386.433 -409.436)"><path d="M0,0H-7.263S-17.6,11.351-24.247,11.351-27.309.064-27.309.064h-3.243a18.327,18.327,0,0,0-18.2,16.247c-.12,1.06-.231,2.065-.325,2.975-.711,6.867,27.107,11.864,27.107,11.864l14.323-.8,8.7-16.969L2.779,6.429Z" fill="#edbf48"/></g><g transform="translate(298.777 -124.981)"><path d="M0,0C.647,3.471,3.053,5.937,6.524,5.291L52.792-3.34a2.156,2.156,0,0,0,1.724-2.515L53.751-9.96S5.088-1.444-.024-.027Z" fill="#f1f2f2"/></g><g transform="translate(312.542 -136.631)"><path d="M0,0C.481-.419.947-.835,1.429-1.252c.928-.831,1.841-1.64,2.72-2.424.464-.415.929-.831,1.359-1.22L7.861-7c.513-.463.993-.9,1.424-1.291l1.889-1.692a1.045,1.045,0,0,1,1.376-.029c1.9,1.6,8.049,5.256,19.185-1.633a1.065,1.065,0,0,1,1.513.393L39.984,1.691s-48.661,8.515-53.773,9.933C-12.108,10.576-5.9,5.2,0,0" fill="#286f6c"/></g><g transform="translate(225.908 -125.436)"><path d="M0,0C.087,3.529,2.068,6.349,5.6,6.261L52.649,5.113a2.155,2.155,0,0,0,2.1-2.207l-.1-4.175S5.253-.615-.019-.028Z" fill="#f1f2f2"/></g><g transform="translate(241.354 -134.743)"><path d="M0,0C.544-.337,1.068-.673,1.612-1.009,2.66-1.683,3.691-2.335,4.683-2.968c.524-.336,1.049-.671,1.536-.988.955-.613,1.853-1.185,2.659-1.7C9.459-6.032,10-6.388,10.487-6.7l2.136-1.372a1.046,1.046,0,0,1,1.364.192C15.609-6,21.1-1.413,33.187-6.44a1.068,1.068,0,0,1,1.432.632L39.2,8.039s-49.4.655-54.668,1.24C-13.639,8.511-6.649,4.195,0,0" fill="#286f6c"/></g><g transform="translate(192.438 -316.87)"><path d="M0,0-25.129-67.019h71.54L71.537,0Z" fill="#abb5ba"/></g><g transform="translate(268.399 -316.87)"><path d="M0,0H-4.423L-29.551-67.019l4.016.179L-2.293-6.179Z" fill="#8495a0"/></g><g transform="translate(267.011 -316.87)"><path d="M0,0H47.271l-.129-4.225H-.968" fill="#8495a0"/></g><path d="M468.4-117.112H457.02V-304.089H468.4Z" fill="#8495a0"/><path d="M406.623-117.112H395.242V-304.089h11.381Z" fill="#abb5ba"/><path d="M208.7-117.112H197.324V-304.089H208.7Z" fill="#8495a0"/><path d="M146.928-117.112H135.546V-304.089h11.381Z" fill="#abb5ba"/><g transform="translate(479.79 -303.38)"><path d="M0,0H-355.147a5.532,5.532,0,0,1-5.532-5.531V-7.96a5.532,5.532,0,0,1,5.532-5.531H0A5.53,5.53,0,0,1,5.531-7.96v2.429A5.53,5.53,0,0,1,0,0" fill="#fff"/></g><g transform="translate(179.254 -376.845)"><path d="M0,0,1.224,3.264H15.475L14.251,0Z" fill="#8495a0"/></g><g transform="translate(321.183 -361.015)"><path d="M0,0-1.024,1.976,13.4,16.881V12.505Z" fill="#e8987c"/></g><path d="M615.545-106.365H39.659v-13.149H615.545Z" fill="#a5b7c6"/></g><g transform="translate(2862.167 -2140)"><path d="M497.38-232.127c-.5,4.295-.881,8.6-1.351,12.9h0c-.432,3.98-1.777,8.377-1.817,12.321h0c-.053,4.977.667,13.677,3.675,17.788h0c2.3,3.14,6.117,5.881,10.073,5.076h0c14.684-2.995,13.995-21.9,16.283-33h0c1.217-5.912,2.059-12,3.543-17.847h0c1-3.953,2.356-8.124,1.239-12.252h0a50.69,50.69,0,0,0-2.477-6.9h0c-2.127-4.877-4.541-9.177-5.6-14.257h0c-13.676,7.727-21.761,20.7-23.568,36.175" fill="#286f6c"/></g><g transform="translate(2862.167 -2140)" clip-path="url(#b)"><g transform="translate(505.474 -183.67)"><path d="M0,0Q.156-1.4.343-2.792C2.1-2.8,3.923-3.795,5.4-4.557a26.852,26.852,0,0,0,6.632-5.252c.109-.108-.072-.283-.187-.188a29.91,29.91,0,0,1-6.459,4.42A18.208,18.208,0,0,1,.475-3.751Q.709-5.417.984-7.077C2.811-7.3,4.485-8.5,6.032-9.419a57.7,57.7,0,0,0,7.235-5.524.026.026,0,1,0-.032-.041C9.648-12.38,5.653-8.673,1.117-7.861c.241-1.388.495-2.771.787-4.144.013-.072.031-.143.045-.215,5.249-1.328,8.8-5.445,12.82-8.773.065-.055,0-.165-.073-.112-3.957,3.075-7.677,6.581-12.571,8.075.424-1.967.865-3.927,1.309-5.884A28.024,28.024,0,0,0,15.3-27.325c.056-.065-.036-.156-.1-.093-3.436,3.576-7.22,5.629-11.576,7.665.439-1.939.875-3.876,1.288-5.82,2.055-1.009,4.216-1.624,6.113-2.955a16.71,16.71,0,0,0,4.757-4.823.094.094,0,0,0-.159-.1c-2.657,3.821-6.664,5.011-10.537,7.02q.568-2.718,1.045-5.455c4.315-2.376,9-4.579,11.449-9.132.024-.045-.04-.089-.067-.045C14.924-36.88,10.4-35.079,6.287-32.8c.053-.325.113-.648.164-.975.264-1.695.512-3.391.755-5.087a41.468,41.468,0,0,0,7.075-3.848,13.492,13.492,0,0,0,4.311-3.672.094.094,0,0,0-.153-.108c-2.313,3.316-7.383,5.233-11.127,6.892q.366-2.57.728-5.141c4.155-2.513,9.043-3.9,11.6-8.435a.121.121,0,0,0-.207-.127c-2.647,4.137-7.307,5.413-11.277,7.761q.228-1.592.468-3.183c4.485-1.649,9.7-5.405,12.068-9.46a.2.2,0,0,0-.339-.217,25.168,25.168,0,0,1-11.6,8.835C9.019-51.284,9.3-53,9.6-54.712a.517.517,0,0,0,.067-.152,25.712,25.712,0,0,0,5.744-3.087,15.709,15.709,0,0,0,5.4-4.921c.145-.235-.237-.452-.373-.212-1.992,3.556-6.721,5.941-10.635,7.3.113-.625.227-1.249.351-1.873q.278-1.4.565-2.8c1.6-1.107,3.639-1.636,5.248-2.805a29.865,29.865,0,0,0,3.819-3.48c.12-.123-.057-.313-.184-.195a25.251,25.251,0,0,1-5.271,4.048c-1.105.592-2.365.929-3.436,1.579.312-1.524.625-3.049.923-4.575.02,0,.039-.008.057-.012l.057.012a.281.281,0,0,0,.263-.083c2.179-.549,3.847-2.425,5.312-4.024a.04.04,0,0,0-.056-.057,14.564,14.564,0,0,1-5.343,3.6.148.148,0,0,0-.021-.009c-.053-.008-.1-.017-.156-.024.239-1.243.465-2.487.672-3.733a.286.286,0,0,0,.259-.32,22.85,22.85,0,0,0,3.189-2.731.08.08,0,0,0-.108-.119,18.545,18.545,0,0,1-3.188,2.248,77.362,77.362,0,0,0,.868-7.781c.013-.241-.355-.244-.375-.005-.229,2.517-.595,5.011-1.028,7.492a23.244,23.244,0,0,1-3.275-5.007c-.037-.095-.187-.056-.153.045a14.338,14.338,0,0,0,1.592,3.1,18.923,18.923,0,0,0,1.689,2.723q-.364,2-.779,3.987a7.326,7.326,0,0,1-4.008-1.569,7.27,7.27,0,0,1-2.464-5.009c-.019-.24-.4-.239-.375,0a8.291,8.291,0,0,0,2.132,4.879,7.806,7.806,0,0,0,4.6,2.244q-.482,2.3-.988,4.592a35.793,35.793,0,0,1-3.757-2.791c-1.931-1.539-3.072-3.391-4.747-5.124-.168-.172-.441.077-.276.255,1.569,1.669,2.632,3.477,4.419,4.977a25.431,25.431,0,0,0,4.241,3.233c-.019.081-.037.161-.053.243a.534.534,0,0,0-.051.043.245.245,0,0,0-.035.343c-.323,1.464-.644,2.929-.955,4.4-.019.091-.035.183-.055.276C5.512-57.153.408-59.871-.045-63.833a.266.266,0,1,0-.519.113C.447-59.235,5.375-57.248,8.771-54.8q-.5,2.492-.923,4.995a20.214,20.214,0,0,1-6.156-3.171c-1.685-1.34-4.068-2.956-4.828-5.032-.023-.065-.119-.021-.1.041.7,2.064,2.84,3.483,4.4,4.889a16.444,16.444,0,0,0,6.532,4.017.45.45,0,0,0-.005.223q-.262,1.588-.5,3.179c-4.149-.319-9.953-3.469-12.073-6.607-.009-.015-.029,0-.021.016a13.6,13.6,0,0,0,6.1,5.007c1.84.908,3.829,1.981,5.911,2.136q-.444,2.944-.877,5.891c-1.8-.671-3.707-.992-5.488-1.7a13.587,13.587,0,0,1-6.228-5.3c-.093-.141-.329-.023-.237.125,2.872,4.565,7,5.905,11.844,7.615q-.364,2.416-.76,4.828c-3.961-.759-9.084-3.177-11.088-6.617-.147-.252-.549-.043-.4.212A12.851,12.851,0,0,0-.467-35.341c1.6.809,3.811,2.151,5.719,2.295-.008.052-.016.105-.025.157-.392,2.313-.849,4.616-1.343,6.909C-.54-27.092-3.4-30.369-6.617-33.437c-.223-.213-.573.112-.351.329,3.276,3.225,6.155,6.608,10.707,7.8q-.614,2.8-1.293,5.584a20.442,20.442,0,0,1-9.936-6.8c-.173-.219-.477.077-.313.293A21.992,21.992,0,0,0,2.271-19c-.488,1.993-.995,3.981-1.507,5.969-3.871-.589-6.853-3.013-9.237-6.077-.056-.071-.18.023-.128.1,2.119,2.948,5.323,6.352,9.179,6.709-.163.633-.328,1.268-.492,1.9-.1.381-.2.769-.307,1.161a21.962,21.962,0,0,1-8.037-3.875c-.068-.056-.145.049-.083.107A20.971,20.971,0,0,0-.38-8.659c-.325,1.193-.668,2.42-1.008,3.671A16.393,16.393,0,0,0-3.6-5.932,15.915,15.915,0,0,1-7.26-8.047c-.117-.071-.248.093-.131.169A16.558,16.558,0,0,0-4.236-5.745c.939.355,1.821.8,2.728,1.207C-2.839.42-4.016,5.693-3.377,10.453c.141,1.056,1.913,1.336,2.187.212C-.351,7.215-.393,3.528,0,0" fill="#ababab"/></g></g><g transform="translate(2862.167 -2140)"><path d="M447.052-222.558c1.357,4.105,2.831,8.169,4.221,12.264h0c1.287,3.788,1.923,8.343,3.551,11.937h0c2.052,4.533,6.377,12.117,10.839,14.573h0c3.409,1.877,8.031,2.752,11.275.351h0c12.048-8.913,3.444-25.761.832-36.792h0c-1.389-5.873-3.2-11.749-4.32-17.673h0c-.757-4.008-1.292-8.359-4.048-11.628h0a50.868,50.868,0,0,0-5.156-5.212h0c-3.988-3.524-7.991-6.4-11.095-10.564h0c-9.137,12.779-10.993,27.949-6.1,42.744" fill="#286f6c"/></g><g transform="translate(2862.167 -2140)" clip-path="url(#b)"><g transform="translate(474.843 -182.044)"><path d="M0,0C-.3-.888-.587-1.781-.869-2.677.72-3.42,1.955-5.1,2.968-6.411a26.862,26.862,0,0,0,3.8-7.561c.051-.143-.185-.224-.249-.089A29.913,29.913,0,0,1,2.525-7.328,18.268,18.268,0,0,1-1.152-3.6q-.494-1.61-.943-3.231C-.533-7.805.477-9.6,1.492-11.085a57.741,57.741,0,0,0,4.228-8.06.027.027,0,0,0-.047-.025C3.521-15.3,1.464-10.249-2.305-7.6c-.368-1.359-.721-2.72-1.037-4.088-.017-.071-.032-.143-.048-.215,4.2-3.419,5.68-8.651,7.919-13.364.037-.077-.073-.149-.113-.071C2.124-20.88.233-16.129-3.575-12.712c-.445-1.961-.872-3.924-1.295-5.885a28.02,28.02,0,0,0,7.2-12.633.067.067,0,0,0-.127-.044C.6-26.583-1.961-23.124-5.052-19.439c-.42-1.943-.843-3.883-1.289-5.819,1.437-1.784,3.137-3.253,4.3-5.259A16.7,16.7,0,0,0,.232-36.9a.093.093,0,0,0-.185-.024c-.8,4.585-3.928,7.353-6.589,10.809-.424-1.8-.872-3.6-1.356-5.385,2.909-3.975,6.231-7.951,6.525-13.111,0-.051-.073-.064-.08-.012-.581,4.885-3.927,8.429-6.691,12.229-.089-.317-.172-.636-.265-.953-.473-1.647-.965-3.289-1.461-4.929a41.419,41.419,0,0,0,4.789-6.475A13.475,13.475,0,0,0-2.723-49.9a.094.094,0,0,0-.185-.032c-.7,3.983-4.484,7.859-7.177,10.944q-.754-2.484-1.509-4.968c2.7-4.032,6.548-7.355,6.955-12.541a.121.121,0,0,0-.24-.029c-.653,4.869-4.341,7.993-6.949,11.8q-.464-1.54-.92-3.083c3.371-3.388,6.515-9,6.947-13.669a.2.2,0,0,0-.4-.053,25.179,25.179,0,0,1-6.785,12.9c-.487-1.669-.959-3.341-1.4-5.023a.5.5,0,0,0,0-.167,25.738,25.738,0,0,0,3.905-5.221,15.726,15.726,0,0,0,2.819-6.741.214.214,0,0,0-.427-.033c-.307,4.065-3.588,8.221-6.564,11.1-.159-.615-.32-1.229-.472-1.847q-.338-1.384-.667-2.775c.987-1.68,2.607-3.019,3.572-4.757a29.569,29.569,0,0,0,1.993-4.768.134.134,0,0,0-.248-.1,25.229,25.229,0,0,1-3.069,5.9c-.753,1-1.753,1.84-2.449,2.88-.36-1.513-.72-3.027-1.093-4.536.015-.011.029-.024.047-.035l.056-.015a.28.28,0,0,0,.2-.185c1.744-1.417,2.464-3.823,3.116-5.891a.04.04,0,0,0-.075-.027,14.54,14.54,0,0,1-3.321,5.52h-.023c-.052.016-.1.031-.153.044q-.46-1.838-.964-3.668a.286.286,0,0,0,.1-.4,22.971,22.971,0,0,0,1.74-3.824.081.081,0,0,0-.149-.06,18.712,18.712,0,0,1-1.94,3.385,76.641,76.641,0,0,0-2.5-7.421c-.089-.225-.423-.072-.343.152.856,2.38,1.577,4.793,2.232,7.225a23.117,23.117,0,0,1-5.081-3.156c-.075-.069-.193.028-.121.105a14.3,14.3,0,0,0,2.752,2.137,19.173,19.173,0,0,0,2.679,1.756c.344,1.311.667,2.625.977,3.943a7.335,7.335,0,0,1-4.295.268,7.269,7.269,0,0,1-4.348-3.5c-.119-.209-.461-.049-.34.16a8.3,8.3,0,0,0,3.992,3.524,7.8,7.8,0,0,0,5.119.092q.534,2.286,1.043,4.58a35.6,35.6,0,0,1-4.584-.944c-2.4-.58-4.215-1.779-6.467-2.641a.187.187,0,0,0-.143.345c2.129.852,3.855,2.043,6.108,2.649a25.477,25.477,0,0,0,5.208,1.14c.017.081.036.161.053.243-.008.02-.019.039-.027.061a.246.246,0,0,0,.113.324c.325,1.464.652,2.928.992,4.389.02.091.045.183.067.273-3.757.025-9.531-.284-11.612-3.685-.2-.324-.664.008-.424.323,2.809,3.639,8.116,3.359,12.225,4.143q.6,2.47,1.271,4.917a20.189,20.189,0,0,1-6.919-.277c-2.092-.5-4.935-.961-6.5-2.523-.048-.049-.119.029-.072.079,1.508,1.575,4.044,1.957,6.049,2.577a16.434,16.434,0,0,0,7.617.884.451.451,0,0,0,.089.205q.432,1.55.884,3.095c-3.9,1.46-10.488,1.055-13.733-.895-.015-.009-.027.015-.012.023a13.611,13.611,0,0,0,7.64,1.968c2.052.045,4.307.179,6.261-.56.557,1.905,1.127,3.808,1.688,5.711-1.913.153-3.779.665-5.693.771a13.586,13.586,0,0,1-7.884-2.179c-.147-.089-.309.117-.163.213,4.531,2.927,8.841,2.4,13.951,1.9q.69,2.344,1.348,4.7c-3.911.984-9.575.955-12.843-1.319-.241-.167-.516.193-.276.363a12.837,12.837,0,0,0,7.135,1.887c1.795.057,4.363.343,6.152-.333.015.051.031.1.045.153.62,2.264,1.177,4.544,1.7,6.831-4.48.86-8.457-.9-12.667-2.329-.293-.1-.472.344-.179.448,4.331,1.541,8.368,3.393,13,2.552q.628,2.8,1.185,5.609a20.448,20.448,0,0,1-11.877-1.971c-.249-.125-.4.272-.159.4a21.984,21.984,0,0,0,12.181,2.3c.4,2.013.779,4.031,1.155,6.048-3.76,1.1-7.487.161-10.941-1.611-.08-.041-.153.1-.073.141C-12.659-11.831-8.317-10.1-4.672-11.4c.12.645.239,1.288.359,1.932.071.388.141.784.211,1.183a21.965,21.965,0,0,1-8.923-.12c-.084-.021-.111.105-.028.131A20.942,20.942,0,0,0-4-7.691c.208,1.219.416,2.477.636,3.753a16.419,16.419,0,0,0-2.408.079A15.886,15.886,0,0,1-9.98-4.232c-.135-.015-.184.189-.047.209a16.642,16.642,0,0,0,3.763.6c1-.076,1.989-.041,2.98-.059C-2.4,1.579-1.24,6.855,1.349,10.9c.573.9,2.3.4,2.071-.731C2.727,6.688,1.132,3.363,0,0" fill="#ccc"/></g></g><g transform="translate(2862.167 -2140)"><path d="M466.419-238.723c.7,5.305,1.549,10.588,2.291,15.887h0c.687,4.9.407,10.589,1.552,15.335h0c1.445,5.987,4.948,16.208,9.8,20.228h0c3.712,3.071,9.124,5.2,13.625,3.036h0c16.711-8.045,10.152-30.523,9.532-44.535h0c-.331-7.461-1.169-15.024-1.161-22.488h0c.007-5.045.365-10.46-2.228-15.073h0a62.638,62.638,0,0,0-5.064-7.527h0c-4.031-5.209-8.231-9.637-11.04-15.412h0c-14.067,13.416-19.835,31.432-17.309,50.549" fill="#286f6c"/></g><g transform="translate(2862.167 -2140)" clip-path="url(#b)"><g transform="translate(490.822 -183.036)"><path d="M0,0Q-.236-1.722-.437-3.455C1.668-3.991,3.557-5.741,5.092-7.1a33.268,33.268,0,0,0,6.367-8.313c.095-.163-.175-.317-.283-.167A37.045,37.045,0,0,1,4.767-8.323C3.361-7.179,1.339-5.376-.567-4.644q-.228-2.072-.4-4.147c2.124-.821,3.769-2.769,5.347-4.34a71.5,71.5,0,0,0,7.005-8.82.033.033,0,0,0-.052-.041C7.821-17.78,4.152-12.121-1.043-9.772c-.133-1.736-.247-3.473-.315-5.209,0-.092-.005-.181-.008-.272,5.895-3.185,8.907-9.2,12.721-14.413.061-.084-.056-.2-.123-.112C7.416-24.891,4.017-19.553-1.4-16.28c-.087-2.487-.152-4.972-.212-7.456A34.66,34.66,0,0,0,10.069-37.424a.083.083,0,0,0-.144-.084C6.888-32.175,2.971-28.564-1.64-24.8c-.06-2.457-.125-4.915-.22-7.372,2.16-1.835,4.565-3.228,6.441-5.4A20.673,20.673,0,0,0,8.825-44.8a.116.116,0,0,0-.22-.072C6.576-39.484,2.128-36.843-1.909-33.257q-.144-3.43-.4-6.861c4.456-4.159,9.415-8.223,10.968-14.428.016-.061-.075-.095-.093-.033C6.725-48.775,1.839-45.241-2.4-41.26c-.033-.408-.061-.815-.1-1.221-.2-2.112-.415-4.223-.637-6.332a51.279,51.279,0,0,0,7.323-6.763c1.587-1.716,3.307-3.456,4.06-5.713a.115.115,0,0,0-.216-.081C6.255-56.692.755-52.855-3.235-49.729q-.342-3.2-.684-6.388C.3-60.393,5.745-63.543,7.439-69.753a.15.15,0,0,0-.285-.091C5.232-64.079.027-61.133-4.027-57.112q-.206-1.98-.4-3.963c4.881-3.337,10-9.425,11.611-15.008a.25.25,0,0,0-.473-.157A31.13,31.13,0,0,1-4.527-62.125c-.2-2.141-.391-4.285-.543-6.432a.589.589,0,0,0,.035-.2C-2.8-70.082-.84-72.389.92-74.2a19.457,19.457,0,0,0,4.989-7.544c.1-.325-.424-.469-.512-.14C4.084-77.016-.865-72.722-5.152-69.905c-.051-.785-.1-1.568-.147-2.355q-.092-1.762-.169-3.528C-3.88-77.6-1.6-78.854-.023-80.745a36.674,36.674,0,0,0,3.528-5.333.166.166,0,0,0-.28-.177,31.22,31.22,0,0,1-5.1,6.456c-1.148,1.045-2.557,1.832-3.645,2.935-.085-1.924-.175-3.847-.28-5.768.023-.009.044-.021.065-.032l.073,0a.35.35,0,0,0,.291-.177c2.448-1.32,3.88-4.077,5.152-6.44A.05.05,0,0,0-.3-89.337c-1.413,2.171-3.031,4.587-5.316,5.943a.2.2,0,0,0-.028,0l-.2.017q-.134-2.344-.324-4.683a.353.353,0,0,0,.212-.463,28.338,28.338,0,0,0,3-4.244.1.1,0,0,0-.167-.109A23.123,23.123,0,0,1-6.26-89.213a95.091,95.091,0,0,0-1.321-9.6c-.057-.295-.5-.187-.449.105.489,3.091.805,6.192,1.039,9.3A28.656,28.656,0,0,1-12.44-94.42c-.075-.1-.24-.011-.171.1A17.775,17.775,0,0,0-9.76-91.084a23.668,23.668,0,0,0,2.851,2.755q.17,2.508.276,5.02a9.1,9.1,0,0,1-5.285-.668,9,9,0,0,1-4.475-5.265c-.095-.281-.549-.165-.449.116a10.262,10.262,0,0,0,4.037,5.209c2,1.312,3.979,1.392,6.2,1.3q.118,2.9.207,5.809a43.939,43.939,0,0,1-5.353-2.209c-2.784-1.261-4.715-3.136-7.251-4.708a.232.232,0,0,0-.253.388c2.391,1.528,4.212,3.375,6.812,4.633a31.458,31.458,0,0,0,6.068,2.593c0,.1.005.2.009.307-.016.023-.035.044-.049.067a.3.3,0,0,0,.064.421c.056,1.855.115,3.712.189,5.567.005.115.013.231.019.347-4.573-.84-11.521-2.552-13.265-7.169a.33.33,0,1,0-.588.293c2.572,5.076,9.088,5.965,13.9,7.869q.152,3.14.405,6.273a25,25,0,0,1-8.347-1.94c-2.429-1.1-5.777-2.312-7.317-4.572-.048-.072-.151.009-.105.079,1.469,2.264,4.464,3.317,6.757,4.533A20.351,20.351,0,0,0-5.643-61.2a.557.557,0,0,0,.06.269q.166,1.984.357,3.965c-5.073.876-12.992-1.144-16.487-4.267-.016-.015-.036.011-.021.027,2.461,2.433,5.508,3.451,8.832,4.16,2.485.529,5.2,1.215,7.743.768.237,2.445.487,4.891.732,7.336-2.364-.259-4.748-.068-7.1-.383A16.818,16.818,0,0,1-20.609-53.8c-.155-.14-.4.075-.247.223,4.831,4.607,10.193,4.963,16.519,5.547q.3,3.008.553,6.023c-4.983.291-11.863-1.057-15.309-4.577-.253-.259-.672.115-.42.377,2.189,2.26,5.228,3.272,8.239,3.945,2.168.485,5.223,1.425,7.556,1.019.005.065.012.132.019.2.229,2.895.38,5.795.483,8.7-5.645.007-10.072-3.06-14.861-5.765-.332-.188-.653.309-.32.5,4.909,2.875,9.387,6.061,15.211,6.112q.114,3.544.141,7.093a25.3,25.3,0,0,1-13.983-5.147c-.275-.208-.549.239-.285.448A27.216,27.216,0,0,0-3.036-23.488c.016,2.54.012,5.079,0,7.619-4.825.465-9.137-1.539-12.928-4.491-.088-.068-.209.081-.123.155,3.435,2.895,8.312,6.007,13.047,5.265,0,.809-.008,1.621-.013,2.431,0,.489-.009.985-.017,1.487a27.191,27.191,0,0,1-10.819-2.212c-.1-.045-.157.1-.065.152A25.971,25.971,0,0,0-3.083-10.273c-.028,1.529-.067,3.107-.1,4.708a20.451,20.451,0,0,0-2.945-.46c-1.875-.081-3.281-.9-5.028-1.429-.16-.048-.267.188-.1.244,1.551.532,2.768,1.413,4.432,1.6,1.233.139,2.429.412,3.637.619-.093,6.355.095,13.036,2.3,18.556.489,1.224,2.7,1.021,2.688-.409C1.767,8.763.6,4.352,0,0" fill="#fff"/></g><g transform="translate(512.445 -177.786)"><path d="M0,0-.619,11.391l-.968,17.737L-3.173,58.271H-42.629l-1.585-29.143-.969-17.737L-45.8,0Z" fill="#95a8b5"/></g><g transform="translate(511.827 -166.395)"><path d="M0,0-.128,2.284-.253,4.648-.969,17.737H-43.6l-.715-13.089-.127-2.364L-44.565,0Z" fill="#a5b7c6"/></g><g transform="translate(511.699 -164.112)"><path d="M0,0-.127,2.364H-44.184L-44.309,0Z" fill="#95a8b5"/></g></g></g></svg>